<svg xmlns="http://www.w3.org/2000/svg" width="27" height="27" viewBox="0 0 27 27">
    <path fill="#786259" fill-rule="nonzero" d="M27 12.375v2.25h-2.307c-.53 5.307-4.761 9.538-10.068 10.068V27h-2.25v-2.307c-5.307-.53-9.538-4.761-10.068-10.068H0v-2.25h2.307c.53-5.307 4.761-9.539 10.068-10.068V0h2.25v2.307c5.307.53 9.539 4.761 10.068 10.068H27zM14.625 22.422a9.01 9.01 0 0 0 7.797-7.797H20.25v-2.25h2.172a9.008 9.008 0 0 0-7.797-7.797V6.75h-2.25V4.578a9.01 9.01 0 0 0-7.797 7.797H6.75v2.25H4.578a9.01 9.01 0 0 0 7.797 7.797V20.25h2.25v2.172zm-1.125-6.54a2.382 2.382 0 1 1 0-4.764 2.382 2.382 0 0 1 0 4.764z"/>
</svg>
